<svg width="1050px" height="330px" viewBox="0 0 1050 330" version="1.1" xmlns="http://www.w3.org/2000/svg" xmlns:xlink="http://www.w3.org/1999/xlink">
    <defs>
        <filter x="-50%" y="-50%" width="200%" height="200%" filterUnits="objectBoundingBox" id="filter-1">
            <feOffset dx="0" dy="28" in="SourceAlpha" result="shadowOffsetOuter1"></feOffset>
            <feGaussianBlur stdDeviation="34" in="shadowOffsetOuter1" result="shadowBlurOuter1"></feGaussianBlur>
            <feColorMatrix values="0 0 0 0 0.949019608   0 0 0 0 0.949019608   0 0 0 0 0.949019608  0 0 0 1 0" type="matrix" in="shadowBlurOuter1" result="shadowMatrixOuter1"></feColorMatrix>
            <feMerge>
                <feMergeNode in="shadowMatrixOuter1"></feMergeNode>
                <feMergeNode in="SourceGraphic"></feMergeNode>
            </feMerge>
        </filter>
    </defs>
    <g id="Page-1" stroke="none" stroke-width="1" fill="none" fill-rule="evenodd" opacity="0.560000002">
        <g id="Artboard" transform="translate(-168.000000, -224.000000)">
            <g id="Group-30" transform="translate(222.000000, 189.000000)">
                <g id="Group-25">
                    <g id="Group" filter="url(#filter-1)">
                        <g id="woman-using-laptop">
                            <g id="Group-3" transform="translate(-53.828390, 58.000000)">
                                <path d="M17.5169664,131.56988 C17.5169664,131.56988 55.8514623,138.30874 88.7023328,133.43522 C121.553203,128.561699 117.454815,125.879174 130.371308,114.980667 C143.287802,104.08216 169.395594,125.744662 197.457281,124.703158 C236.898818,123.239293 245.89555,112.799072 297.792211,77.8253756 C349.688871,42.851679 368.775254,58.2936892 406.766499,81.5034372 C444.757743,104.713185 439.43307,89.0136255 482.404851,90.3543975 C525.376632,91.6951695 553.724468,159.794267 620.551393,162.210686 C687.378317,164.627106 690.604131,1.20063481 734.109136,0.234824474 C777.614141,-0.730985862 768.458576,64.9479044 799.790197,66.1826267 C831.121817,67.4173489 817.057569,155.158377 884.432844,158.411832 C951.808119,161.665288 956.259213,59.9711406 1006.98732,58.1152698 C1021.00022,57.6026123 1051.99362,44.8212291 1051.99362,44.8212291 C1051.99362,44.8212291 1089.18213,136.842006 1188.14138,99.1117318 C1287.10064,61.3814578 1229.58384,130.85155 1238.39885,131.56988 C1247.21386,132.28821 1238.39885,146.666821 1238.39885,146.666821 L1238.39885,225.223134 L0.644202368,225.223134 L0.644202368,136.842006 L13.2114685,133.060258 L17.5169664,131.56988 Z" id="Path-2" fill-opacity="0.1" fill="#FFFFFF"></path>
                                <path d="M0.801726442,131.56988 C0.801726442,131.56988 15.2583291,128.544621 29.8198746,131.56988 C44.3814202,134.595139 58.5345391,139.754649 87.1206248,135.662265 C115.706711,131.56988 117.454815,125.879174 130.371308,114.980667 C143.287802,104.08216 169.395594,125.744662 197.457281,124.703158 C236.898818,123.239293 245.89555,112.799072 297.792211,77.8253756 C349.688871,42.851679 368.775254,58.2936892 406.766499,81.5034372 C444.757743,104.713185 439.43307,89.0136255 482.404851,90.3543975 C525.376632,91.6951695 553.724468,159.794267 620.551393,162.210686 C687.378317,164.627106 690.604131,1.20063481 734.109136,0.234824474 C739.367073,0.118098356 743.855813,0.97483201 747.739793,2.5736089 M759.838126,11.58641 C776.743398,26.3581003 778.093456,65.3275976 799.790197,66.1826267 C831.121817,67.4173489 817.057569,155.158377 884.432844,158.411832 C951.808119,161.665288 960.720395,58.1152698 1006.98732,58.1152698 C1053.25424,58.1152698 1051.99362,37.877095 1051.99362,37.877095" id="Path-2" stroke="#FFFFFF"></path>
                            </g>
                        </g>
                    </g>
                </g>
            </g>
        </g>
    </g>
</svg>
