<?xml version="1.0" encoding="utf-8"?>
<!-- Generator: Adobe Illustrator 22.1.0, SVG Export Plug-In . SVG Version: 6.00 Build 0)  -->
<svg width="150" height="150" version="1.1" id="Layer_1" xmlns="http://www.w3.org/2000/svg" xmlns:xlink="http://www.w3.org/1999/xlink" x="0px" y="0px"
	 viewBox="0 0 151 150" style="enable-background:new 0 0 151 150;" xml:space="preserve">
<style type="text/css">
	.st0{filter:url(#Adobe_OpacityMaskFilter);}
	.st1{fill:#FFFFFF;}
	.st2{mask:url(#mask-2_3_);fill:#F2F3F5;}
	.st3{fill:none;stroke:#ACB7BC;stroke-width:1.001259;}
	.st4{fill:#F8F9F9;}
	.st5{fill:none;stroke:#7F888D;stroke-width:1.001259;stroke-linecap:round;}
	.st6{fill:none;}
	.st7{fill:url(#Stroke-39_2_);stroke:#7F888D;stroke-width:1.001259;stroke-linecap:round;stroke-linejoin:round;}
	.st8{fill:#DDDFE0;}
	.st9{fill:none;stroke:#7F878C;stroke-width:1.001259;}
	.st10{fill:none;stroke:#7F888D;stroke-width:1.001259;stroke-linecap:round;stroke-linejoin:round;}
	.st11{fill:none;stroke:#7F878C;stroke-width:0.947191;stroke-linecap:round;stroke-linejoin:round;}
	.st12{filter:url(#Adobe_OpacityMaskFilter_1_);}
	.st13{mask:url(#mask-2_2_);fill:#F2F3F5;}
	.st14{fill:none;stroke:#ACB7BC;stroke-width:0.9968582;}
	.st15{fill:none;stroke:#7F878C;stroke-width:0.9968582;stroke-linecap:round;stroke-linejoin:round;}
	.st16{filter:url(#Adobe_OpacityMaskFilter_2_);}
	.st17{mask:url(#mask-4_2_);fill:none;}
	.st18{filter:url(#Adobe_OpacityMaskFilter_3_);}
	.st19{mask:url(#mask-9_2_);fill:none;}
	.st20{filter:url(#Adobe_OpacityMaskFilter_4_);}
	.st21{mask:url(#mask-2_4_);fill:#F2F3F5;}
	.st22{fill:#7F888D;}
	.st23{fill:none;stroke:#7F878C;stroke-width:0.9968582;}
	.st24{fill:none;stroke:#7F878C;stroke-width:0.9430279;stroke-linecap:round;stroke-linejoin:round;}
	.st25{filter:url(#Adobe_OpacityMaskFilter_5_);}
	.st26{mask:url(#mask-4_1_);fill:none;}
	.st27{fill:url(#Stroke-40_2_);stroke:#7F888D;stroke-width:0.9968582;}
	.st28{filter:url(#Adobe_OpacityMaskFilter_6_);}
	.st29{mask:url(#mask-7_2_);fill:#FFFFFF;}
	.st30{filter:url(#Adobe_OpacityMaskFilter_7_);}
	.st31{mask:url(#mask-7_1_);fill:none;stroke:#7F878C;stroke-width:0.9968582;}
	.st32{filter:url(#Adobe_OpacityMaskFilter_8_);}
	.st33{mask:url(#mask-9_1_);fill:none;}
	.st34{fill:url(#Stroke-49_1_);stroke:#7F888D;stroke-width:0.9968582;}
	.st35{fill:none;stroke:#7F888D;stroke-width:0.9968582;stroke-linecap:round;}
	
		.st36{fill:none;stroke:#7F888D;stroke-width:0.9968582;stroke-linecap:round;stroke-linejoin:round;stroke-dasharray:0.9968582,1.9937164,0.9968582,1.9937164;}
	.st37{fill:none;stroke:#7F878C;stroke-width:0.9968582;stroke-linejoin:round;}
	.st38{fill:none;stroke:#7F878C;stroke-width:0.9968582;stroke-linecap:round;}
	.st39{fill:#AEB8BD;}
	.st40{fill:#FFFFFF;stroke:#7F878C;stroke-width:0.97;}
	.st41{fill:#FFFFFF;stroke:#7F878C;}
	.st42{fill:#DDDFE0;stroke:#7F888D;}
	.st43{fill:#EFF0F0;}
	.st44{fill:url(#Rectangle-path_1_);}
	.st45{fill:none;stroke:#7F878C;stroke-width:0.6141229;}
	.st46{fill:url(#Stroke-27_1_);stroke:#7F888D;stroke-linejoin:round;}
	.st47{fill:none;stroke:#7F878C;}
</style>
<g id="Page-1_7_">
	<g id="icon_4_" transform="translate(-510.000000, -1921.000000)">
		<g id="Page-1_8_" transform="translate(510.000000, 1921.000000)">
			<g id="Group-36_3_">
				<g id="Group-3_4_">
					<defs>
						<filter id="Adobe_OpacityMaskFilter" filterUnits="userSpaceOnUse" x="0.5" y="0.0003173" width="149.0589447" height="150">
							<feColorMatrix  type="matrix" values="1 0 0 0 0  0 1 0 0 0  0 0 1 0 0  0 0 0 1 0"/>
						</filter>
					</defs>
					<mask maskUnits="userSpaceOnUse" x="0.5" y="0.0003173" width="149.0589447" height="150" id="mask-2_4_">
						<g class="st0">
							<polygon id="path-1_4_" class="st1" points="149.5589447,149.9999237 0.5,149.9999237 0.5,0.0003173 149.5589447,0.0003173 
															"/>
						</g>
					</mask>
					<path id="Fill-1_4_" class="st21" d="M75.0294724,0.0003173c41.1611328,0,74.5294724,33.5779991,74.5294724,74.9999924
						c0,41.4210052-33.3683395,75.0000076-74.5294724,75.0000076S0.5,116.4213181,0.5,75.0003128
						C0.5,33.5783157,33.8683357,0.0003173,75.0294724,0.0003173"/>
				</g>
				<path id="Fill-4_4_" class="st1" d="M20.9463158,118.7278137V51.7408142c0-2.730999,2.1991158-4.9449997,4.9119892-4.9449997
					h98.8360138c2.8529892,0,5.1663818,2.3280029,5.1663818,5.1990013v66.7330017"/>
				<path id="Stroke-6_4_" class="st14" d="M20.9463158,119.7903137V51.4973145c0-2.7299995,2.1991158-4.942997,4.9119892-4.942997
					h98.8360138c2.8529892,0,5.1663818,2.3269997,5.1663818,5.197998v68.0379944"/>
				<g id="Group-11_3_" transform="translate(25.000000, 52.000000)">
					<path id="Fill-8_4_" class="st4" d="M0.6898683,67.7903137V3.9293172c0-2.1659999,1.7439898-3.921,3.8954072-3.921h91.5520096
						c2.1991119,0,3.979866,1.794,3.979866,4.006v63.7759972"/>
					<path id="Stroke-10_3_" class="st14" d="M0.6898683,67.7903137V3.9293172c0-2.1659999,1.7439898-3.921,3.8954072-3.921
						h91.5520096c2.1991119,0,3.979866,1.794,3.979866,4.006v63.7759972"/>
				</g>
				<path id="Fill-12_3_" class="st1" d="M140.9516907,119.5530167H9.8553371c-1.0652752,0-2.8798189,0.7679977-1.4180479,4.1340027
					c1.2829008,2.9569931,2.4694099,3.9069977,4.2581177,4.0949936v0.0390015h125.5135956v-0.0540009
					c1.7340546-0.2129974,2.9026642-1.1790009,4.1617126-4.0799942
					C143.8314972,120.3210144,142.0169678,119.5530167,140.9516907,119.5530167"/>
				<path id="Stroke-14_4_" class="st14" d="M140.9516907,119.5530167H9.8553371
					c-1.0652752,0-2.8798189,0.7679977-1.4180479,4.1340027c1.2829008,2.9569931,2.4694099,3.9069977,4.2581177,4.0949936v0.0390015
					h125.5135956v-0.0540009c1.7340546-0.2129974,2.9026642-1.1790009,4.1617126-4.0799942
					C143.8314972,120.3210144,142.0169678,119.5530167,140.9516907,119.5530167z"/>
				<path id="Stroke-16_4_" class="st14" d="M87.853508,119.5813141c0,1.5820007-1.0772018,2.8769989-2.3928909,2.8769989
					H65.3466034c-1.3166885,0-2.3928947-1.2949982-2.3928947-2.8769989"/>
				<path id="Stroke-18_2_" class="st15" d="M1.4410588,127.8206177H150.5"/>
				<path id="Fill-20_3_" class="st22" d="M83.5123138,94.2688141H55.2706146c-0.1917877,0-0.3199806-0.1289978-0.3199806-0.3219986
					c0-0.1940002,0.1281929-0.322998,0.3199806-0.322998h28.2416992c0.1917953,0,0.3199768,0.1289978,0.3199768,0.322998
					C83.8322906,94.1398163,83.6405029,94.2688141,83.5123138,94.2688141"/>
				<path id="Fill-22_1_" class="st1" d="M96.1323395,128.1214294H13.7464714c-0.5773554,0-1.0454006-0.4720154-1.0454006-1.0530167
					v-58.760994c0-0.5,0.4024591-0.9050064,0.8983288-0.9050064h82.4733276c0.7095108,0,1.2828979,0.5780029,1.2828979,1.2910004
					v58.1970062C97.3556213,127.5694199,96.808075,128.1214294,96.1323395,128.1214294"/>
				<path id="Stroke-24_2_" class="st23" d="M96.1323395,128.1214294H13.7464714
					c-0.5773554,0-1.0454006-0.4720154-1.0454006-1.0530167v-58.760994c0-0.5,0.4024591-0.9050064,0.8983288-0.9050064h82.4733276
					c0.7095108,0,1.2828979,0.5780029,1.2828979,1.2910004v58.1970062
					C97.3556213,127.5694199,96.808075,128.1214294,96.1323395,128.1214294z"/>
				<path id="Stroke-26_3_" class="st24" d="M67.2521744,58.6682167v8.7339973"/>
				<path id="Stroke-28_1_" class="st24" d="M42.8049164,67.4026184v-8.6690025"/>
				<path id="Stroke-30_3_" class="st24" d="M97.3560181,80.361618v11.2179947c0,5.1840057-4.1776199,9.3880005-9.330101,9.3880005
					H22.1945362c-5.2429008,0-9.4930687-4.2770004-9.4930687-9.5519943V80.361618"/>
				<path id="Fill-32_3_" class="st1" d="M60.8853683,96.2571182H49.1723137c-0.5544968,0-1.0036621-0.4520035-1.0036621-1.0090027
					v-1.0660019c0-0.5579987,0.4491653-1.0089951,1.0036621-1.0089951h11.7130547
					c0.5535049,0,1.0026703,0.4509964,1.0026703,1.0089951v1.0660019
					C61.8880386,95.8051147,61.4388733,96.2571182,60.8853683,96.2571182"/>
				<path id="Stroke-34_3_" class="st23" d="M60.8853683,96.2571182H49.1723137
					c-0.5544968,0-1.0036621-0.4520035-1.0036621-1.0090027v-1.0660019c0-0.5579987,0.4491653-1.0089951,1.0036621-1.0089951
					h11.7130547c0.5535049,0,1.0026703,0.4509964,1.0026703,1.0089951v1.0660019
					C61.8880386,95.8051147,61.4388733,96.2571182,60.8853683,96.2571182z"/>
			</g>
			<g id="Group-39_1_" transform="translate(28.000000, 64.000000)">
				<defs>
					
						<filter id="Adobe_OpacityMaskFilter_1_" filterUnits="userSpaceOnUse" x="0.8369995" y="0.2619173" width="8.4526358" height="51.2420006">
						<feColorMatrix  type="matrix" values="1 0 0 0 0  0 1 0 0 0  0 0 1 0 0  0 0 0 1 0"/>
					</filter>
				</defs>
				<mask maskUnits="userSpaceOnUse" x="0.8369995" y="0.2619173" width="8.4526358" height="51.2420006" id="mask-4_1_">
					<g class="st12">
						<path id="path-3_1_" class="st1" d="M1.8933306,0.2619173c-0.5833174,0-1.0563312,0.476-1.0563312,1.062v49.118
							c0,0.586998,0.4730137,1.0620003,1.0563312,1.0620003h6.3409672c0.5823231,0,1.0553379-0.4750023,1.0553379-1.0620003v-49.118
							c0-0.5860001-0.4730148-1.062-1.0553379-1.062H1.8933306z M0.8369995,0.2619173h8.4526358v51.2420006H0.8369995V0.2619173z"/>
					</g>
				</mask>
				<path id="Fill-37_3_" class="st26" d="M1.8933306,0.2619173c-0.5833174,0-1.0563312,0.476-1.0563312,1.062v49.118
					c0,0.586998,0.4730137,1.0620003,1.0563312,1.0620003h6.3409672c0.5823231,0,1.0553379-0.4750023,1.0553379-1.0620003v-49.118
					c0-0.5860001-0.4730148-1.062-1.0553379-1.062H1.8933306z"/>
			</g>
			<g id="Group-45_1_">
				
					<linearGradient id="Stroke-40_2_" gradientUnits="userSpaceOnUse" x1="-7321.918457" y1="1466.435791" x2="-7321.918457" y2="1465.4816895" gradientTransform="matrix(8.5059986 0 0 -51.2420044 62313.2929688 75208.421875)">
					<stop  offset="0" style="stop-color:#07CCFF"/>
					<stop  offset="1" style="stop-color:#71E2FF"/>
				</linearGradient>
				<path id="Stroke-40_1_" class="st27" d="M36.2343941,115.5042191H29.892437
					c-0.582325,0-1.0553379-0.4760056-1.0553379-1.0620041V65.3242188c0-0.5870056,0.4730129-1.0620041,1.0553379-1.0620041
					h6.3419571c0.5823288,0,1.0553398,0.4749985,1.0553398,1.0620041v49.1179962
					C37.2897339,115.0282135,36.8167229,115.5042191,36.2343941,115.5042191z"/>
				<defs>
					
						<filter id="Adobe_OpacityMaskFilter_2_" filterUnits="userSpaceOnUse" x="26.4868355" y="93.1729126" width="13.599144" height="13.6840057">
						<feColorMatrix  type="matrix" values="1 0 0 0 0  0 1 0 0 0  0 0 1 0 0  0 0 0 1 0"/>
					</filter>
				</defs>
				<mask maskUnits="userSpaceOnUse" x="26.4868355" y="93.1729126" width="13.599144" height="13.6840057" id="mask-7_2_">
					<g class="st16">
						<polygon id="path-6_2_" class="st1" points="0.4999006,149.9999237 150.9967651,149.9999237 150.9967651,-0.0000827 
							0.4999006,-0.0000827 						"/>
					</g>
				</mask>
				<path id="Fill-42_1_" class="st29" d="M29.1957359,104.1309128h8.1813469v-8.2329941h-8.1813469V104.1309128z
					 M37.5460167,106.8569183h-8.5192146c-1.4001617,0-2.5399666-1.1470032-2.5399666-2.5550003v-8.5740051
					c0-1.4089966,1.1398048-2.5550003,2.5399666-2.5550003h8.5192146c1.4001579,0,2.5399628,1.1460037,2.5399628,2.5550003
					v8.5740051C40.0859795,105.7099152,38.9461746,106.8569183,37.5460167,106.8569183z"/>
				<defs>
					
						<filter id="Adobe_OpacityMaskFilter_3_" filterUnits="userSpaceOnUse" x="25.9884071" y="92.6744843" width="14.5960016" height="14.6808643">
						<feColorMatrix  type="matrix" values="1 0 0 0 0  0 1 0 0 0  0 0 1 0 0  0 0 0 1 0"/>
					</filter>
				</defs>
				<mask maskUnits="userSpaceOnUse" x="25.9884071" y="92.6744843" width="14.5960016" height="14.6808643" id="mask-7_1_">
					<g class="st18">
						<polygon id="path-6_1_" class="st1" points="0.4999006,149.9999237 150.9967651,149.9999237 150.9967651,-0.0000827 
							0.4999006,-0.0000827 						"/>
					</g>
				</mask>
				<path id="Stroke-44_1_" class="st31" d="M29.1957359,104.1309128h8.1813469v-8.2329941h-8.1813469V104.1309128z
					 M37.5460167,106.8569183h-8.5192146c-1.4001617,0-2.5399666-1.1470032-2.5399666-2.5550003v-8.5740051
					c0-1.4089966,1.1398048-2.5550003,2.5399666-2.5550003h8.5192146c1.4001579,0,2.5399628,1.1460037,2.5399628,2.5550003
					v8.5740051C40.0859795,105.7099152,38.9461746,106.8569183,37.5460167,106.8569183z"/>
			</g>
			<g id="Group-48_3_" transform="translate(72.000000, 64.000000)">
				<defs>
					
						<filter id="Adobe_OpacityMaskFilter_4_" filterUnits="userSpaceOnUse" x="0.3820855" y="0.2619173" width="8.4526358" height="51.2420006">
						<feColorMatrix  type="matrix" values="1 0 0 0 0  0 1 0 0 0  0 0 1 0 0  0 0 0 1 0"/>
					</filter>
				</defs>
				<mask maskUnits="userSpaceOnUse" x="0.3820855" y="0.2619173" width="8.4526358" height="51.2420006" id="mask-9_1_">
					<g class="st20">
						<path id="path-8_1_" class="st1" d="M1.4374229,0.2619173c-0.5833174,0-1.0553374,0.476-1.0553374,1.062v49.118
							c0,0.586998,0.47202,1.0620003,1.0553374,1.0620003h6.3419614c0.5823236,0,1.0553374-0.4750023,1.0553374-1.0620003v-49.118
							c0-0.5860001-0.4730139-1.062-1.0553374-1.062H1.4374229z M0.3820855,0.2619173h8.4526358v51.2420006H0.3820855V0.2619173z"/>
					</g>
				</mask>
				<path id="Fill-46_1_" class="st33" d="M1.4374229,0.2619173c-0.5833174,0-1.0553374,0.476-1.0553374,1.062v49.118
					c0,0.586998,0.47202,1.0620003,1.0553374,1.0620003h6.3419614c0.5823236,0,1.0553374-0.4750023,1.0553374-1.0620003v-49.118
					c0-0.5860001-0.4730139-1.062-1.0553374-1.062H1.4374229z"/>
			</g>
			<g id="Group-77_1_" transform="translate(32.000000, 37.000000)">
				
					<linearGradient id="Stroke-49_1_" gradientUnits="userSpaceOnUse" x1="-7353.9511719" y1="1429.435791" x2="-7353.9511719" y2="1428.4816895" gradientTransform="matrix(8.5060005 0 0 -51.2420044 62597.3203125 73275.4609375)">
					<stop  offset="0" style="stop-color:#07CCFF"/>
					<stop  offset="1" style="stop-color:#71E2FF"/>
				</linearGradient>
				<path id="Stroke-49_2_" class="st34" d="M47.7785912,78.5042191h-6.3419609
					c-0.582325,0-1.0553398-0.4760056-1.0553398-1.0620041V28.3242188c0-0.5869999,0.4730148-1.0620003,1.0553398-1.0620003
					h6.3419609c0.583313,0,1.055336,0.4750004,1.055336,1.0620003V77.442215
					C48.8339272,78.0282135,48.3619041,78.5042191,47.7785912,78.5042191z"/>
				<path id="Fill-51_1_" class="st1" d="M40.7398262,67.1309128h8.1813507v-8.2329979h-8.1813507V67.1309128z
					 M49.0911026,69.8569183h-8.5202065c-1.4001617,0-2.5389709-1.1470032-2.5389709-2.5550003v-8.5740013
					c0-1.4090004,1.1388092-2.5550003,2.5389709-2.5550003h8.5202065c1.3991661,0,2.5389709,1.1459999,2.5389709,2.5550003
					v8.5740013C51.6300735,68.7099152,50.4902687,69.8569183,49.0911026,69.8569183z"/>
				<path id="Stroke-53_1_" class="st23" d="M40.7398262,67.1309128h8.1813507v-8.2329979h-8.1813507V67.1309128z
					 M49.0911026,69.8569183h-8.5202065c-1.4001617,0-2.5389709-1.1470032-2.5389709-2.5550003v-8.5740013
					c0-1.4090004,1.1388092-2.5550003,2.5389709-2.5550003h8.5202065c1.3991661,0,2.5389709,1.1459999,2.5389709,2.5550003
					v8.5740013C51.6300735,68.7099152,50.4902687,69.8569183,49.0911026,69.8569183z"/>
				<path id="Stroke-54_1_" class="st35" d="M1.2864089,62.1057167v5.0249977"/>
				<path id="Stroke-55_3_" class="st35" d="M44.8306007,62.1057167v5.0249977"/>
				<path id="Fill-56_1_" class="st8" d="M35.2521706,25.7512188H10.8045177v-4.0170002
					c0-1.2000008,0.9678898-2.1720009,2.1603613-2.1720009h20.1994743c1.153717,0,2.0878181,0.9400005,2.0878181,2.1000004
					V25.7512188z"/>
				<path id="Stroke-57_1_" class="st23" d="M35.2521706,25.7512188H10.8045177v-4.0170002
					c0-1.2000008,0.9678898-2.1720009,2.1603613-2.1720009h20.1994743c1.153717,0,2.0878181,0.9400005,2.0878181,2.1000004
					V25.7512188z"/>
				<path id="Stroke-58_1_" class="st36" d="M1.0634168,52.2708168v-5.1850014"/>
				<path id="Stroke-59_3_" class="st36" d="M44.8306007,52.2708168v-5.1850014"/>
				<path id="Fill-60_1_" class="st1" d="M65.5110321,85.5003128l-5.5708237,5.0090027l0.9241676-7.4599991l22.882534-43.9290009
					c0.6409531-1.230999,2.1534042-1.7060013,3.3766785-1.0600014c1.3425293,0.7080002,1.86026,2.3770027,1.1567001,3.7270012
					L65.5110321,85.5003128z"/>
				<path id="Stroke-61_1_" class="st37" d="M65.5110321,85.5003128l-5.5708237,5.0090027l0.9241676-7.4599991l22.882534-43.9290009
					c0.6409531-1.230999,2.1534042-1.7060013,3.3766785-1.0600014c1.3425293,0.7080002,1.86026,2.3770027,1.1567001,3.7270012
					L65.5110321,85.5003128z"/>
				<polyline id="Stroke-62_1_" class="st38" points="82.3821259,41.7395172 90.0835037,45.8015175 90.044754,45.875515 
					80.6788788,63.8565178 				"/>
				<g id="Group-65_1_" transform="translate(60.000000, 83.000000)">
					<path id="Fill-63_1_" class="st1" d="M0.8646724,0.0491173l4.6466637,2.451"/>
					<path id="Stroke-64_1_" class="st23" d="M0.8646724,0.0491173l4.6466637,2.451"/>
				</g>
				<g id="Group-68_1_" transform="translate(65.000000, 74.000000)">
					<path id="Fill-66_1_" class="st1" d="M0.2208703,0.6858173l4.6466637,2.451"/>
					<path id="Stroke-67_3_" class="st23" d="M0.2208703,0.6858173l4.6466637,2.451"/>
				</g>
				<path id="Fill-69_3_" class="st1" d="M99.945343,7.2854176c3.7552872,6.1899996,1.8115616,14.2720013-4.3395996,18.052
					c-6.1521606,3.7779999-14.1834564,1.823-17.9387512-4.368c-3.7552872-6.1910009-1.8125534-14.2730007,4.3395996-18.052
					C88.1587524-0.8605826,96.1900482,1.0944173,99.945343,7.2854176"/>
				<path id="Stroke-70_1_" class="st23" d="M99.945343,7.2854176c3.7552872,6.1899996,1.8115616,14.2720013-4.3395996,18.052
					c-6.1521606,3.7779999-14.1834564,1.823-17.9387512-4.368c-3.7552872-6.1910009-1.8125534-14.2730007,4.3395996-18.052
					C88.1587524-0.8605826,96.1900482,1.0944173,99.945343,7.2854176z"/>
				<polyline id="Stroke-71_3_" class="st15" points="94.5979004,8.8040171 87.8018112,19.6850185 83.234642,14.0630169 				"/>
				<path id="Fill-75_1_" class="st39" d="M87.3155823,38.1516151c-1.2650146-0.6879997-2.845047-0.2140007-3.5287247,1.0600014
					l-1.3743286,2.468998l4.5979767,2.5l1.3584213-2.4779968C89.0526123,40.4286156,88.5805893,38.8386154,87.3155823,38.1516151"/>
				<path id="Stroke-76_1_" class="st15" d="M87.3155823,38.1516151c-1.2650146-0.6879997-2.845047-0.2140007-3.5287247,1.0600014
					l-1.3743286,2.468998l4.5979767,2.5l1.3584213-2.4779968C89.0526123,40.4286156,88.5805893,38.8386154,87.3155823,38.1516151z"
					/>
			</g>
		</g>
	</g>
</g>
</svg>
