<?xml version="1.0" encoding="utf-8"?>
<!-- Generator: Adobe Illustrator 22.1.0, SVG Export Plug-In . SVG Version: 6.00 Build 0)  -->
<svg width="150" height="150" version="1.1" id="Layer_1" xmlns="http://www.w3.org/2000/svg" xmlns:xlink="http://www.w3.org/1999/xlink" x="0px" y="0px"
	 viewBox="0 0 151 150" style="enable-background:new 0 0 151 150;" xml:space="preserve">
<style type="text/css">
	.st0{filter:url(#Adobe_OpacityMaskFilter);}
	.st1{fill:#FFFFFF;}
	.st2{mask:url(#mask-2_3_);fill:#F2F3F5;}
	.st3{fill:none;stroke:#ACB7BC;stroke-width:1.001259;}
	.st4{fill:#F8F9F9;}
	.st5{fill:none;stroke:#7F888D;stroke-width:1.001259;stroke-linecap:round;}
	.st6{fill:none;}
	.st7{fill:url(#Stroke-39_2_);stroke:#7F888D;stroke-width:1.001259;stroke-linecap:round;stroke-linejoin:round;}
	.st8{fill:#DDDFE0;}
	.st9{fill:none;stroke:#7F878C;stroke-width:1.001259;}
	.st10{fill:none;stroke:#7F888D;stroke-width:1.001259;stroke-linecap:round;stroke-linejoin:round;}
	.st11{fill:none;stroke:#7F878C;stroke-width:0.947191;stroke-linecap:round;stroke-linejoin:round;}
	.st12{filter:url(#Adobe_OpacityMaskFilter_1_);}
	.st13{mask:url(#mask-2_2_);fill:#F2F3F5;}
	.st14{fill:none;stroke:#ACB7BC;stroke-width:0.9968582;}
	.st15{fill:none;stroke:#7F878C;stroke-width:0.9968582;stroke-linecap:round;stroke-linejoin:round;}
	.st16{filter:url(#Adobe_OpacityMaskFilter_2_);}
	.st17{mask:url(#mask-4_2_);fill:none;}
	.st18{filter:url(#Adobe_OpacityMaskFilter_3_);}
	.st19{mask:url(#mask-9_2_);fill:none;}
	.st20{filter:url(#Adobe_OpacityMaskFilter_4_);}
	.st21{mask:url(#mask-2_4_);fill:#F2F3F5;}
	.st22{fill:#7F888D;}
	.st23{fill:none;stroke:#7F878C;stroke-width:0.9968582;}
	.st24{fill:none;stroke:#7F878C;stroke-width:0.9430279;stroke-linecap:round;stroke-linejoin:round;}
	.st25{filter:url(#Adobe_OpacityMaskFilter_5_);}
	.st26{mask:url(#mask-4_1_);fill:none;}
	.st27{fill:url(#Stroke-40_2_);stroke:#7F888D;stroke-width:0.9968582;}
	.st28{filter:url(#Adobe_OpacityMaskFilter_6_);}
	.st29{mask:url(#mask-7_2_);fill:#FFFFFF;}
	.st30{filter:url(#Adobe_OpacityMaskFilter_7_);}
	.st31{mask:url(#mask-7_1_);fill:none;stroke:#7F878C;stroke-width:0.9968582;}
	.st32{filter:url(#Adobe_OpacityMaskFilter_8_);}
	.st33{mask:url(#mask-9_1_);fill:none;}
	.st34{fill:url(#Stroke-49_1_);stroke:#7F888D;stroke-width:0.9968582;}
	.st35{fill:none;stroke:#7F888D;stroke-width:0.9968582;stroke-linecap:round;}
	
		.st36{fill:none;stroke:#7F888D;stroke-width:0.9968582;stroke-linecap:round;stroke-linejoin:round;stroke-dasharray:0.9968582,1.9937164,0.9968582,1.9937164;}
	.st37{fill:none;stroke:#7F878C;stroke-width:0.9968582;stroke-linejoin:round;}
	.st38{fill:none;stroke:#7F878C;stroke-width:0.9968582;stroke-linecap:round;}
	.st39{fill:#AEB8BD;}
	.st40{fill:#FFFFFF;stroke:#7F878C;stroke-width:0.97;}
	.st41{fill:#FFFFFF;stroke:#7F878C;}
	.st42{fill:#DDDFE0;stroke:#7F888D;}
	.st43{fill:#EFF0F0;}
	.st44{fill:url(#Rectangle-path_1_);}
	.st45{fill:none;stroke:#7F878C;stroke-width:0.6141229;}
	.st46{fill:url(#Stroke-27_1_);stroke:#7F888D;stroke-linejoin:round;}
	.st47{fill:none;stroke:#7F878C;}
</style>
<g id="Page-1_2_">
	<g id="icon_1_" transform="translate(-510.000000, -1921.000000)">
		<g id="Page-1_3_" transform="translate(510.000000, 1921.000000)">
			<g id="Group-36_1_">
				<g id="Group-3_1_">
					<defs>
						<filter id="Adobe_OpacityMaskFilter" filterUnits="userSpaceOnUse" x="0.5" y="0.0003173" width="149.0589447" height="150">
							<feColorMatrix  type="matrix" values="1 0 0 0 0  0 1 0 0 0  0 0 1 0 0  0 0 0 1 0"/>
						</filter>
					</defs>
					<mask maskUnits="userSpaceOnUse" x="0.5" y="0.0003173" width="149.0589447" height="150" id="mask-2_2_">
						<g class="st0">
							<polygon id="path-1_2_" class="st1" points="149.5589447,149.9999237 0.5,149.9999237 0.5,0.0003173 149.5589447,0.0003173 
															"/>
						</g>
					</mask>
					<path id="Fill-1_1_" class="st13" d="M75.0294724,0.0003173c41.1611328,0,74.5294724,33.5779991,74.5294724,74.9999924
						c0,41.4210052-33.3683395,75.0000076-74.5294724,75.0000076S0.5,116.4213181,0.5,75.0003128
						C0.5,33.5783157,33.8683357,0.0003173,75.0294724,0.0003173"/>
				</g>
				<path id="Fill-4_1_" class="st1" d="M20.9463158,118.7278137V51.7408142c0-2.730999,2.1991158-4.9449997,4.9119892-4.9449997
					h98.8360138c2.8529892,0,5.1663818,2.3280029,5.1663818,5.1990013v66.7330017"/>
				<path id="Stroke-6_1_" class="st14" d="M20.9463158,119.7903137V51.4973145c0-2.7299995,2.1991158-4.942997,4.9119892-4.942997
					h98.8360138c2.8529892,0,5.1663818,2.3269997,5.1663818,5.197998v68.0379944"/>
				<g id="Group-11" transform="translate(25.000000, 52.000000)">
					<path id="Fill-8_1_" class="st4" d="M0.6898683,67.7903137V3.9293172c0-2.1659999,1.7439898-3.921,3.8954072-3.921h91.5520096
						c2.1991119,0,3.979866,1.794,3.979866,4.006v63.7759972"/>
					<path id="Stroke-10" class="st14" d="M0.6898683,67.7903137V3.9293172c0-2.1659999,1.7439898-3.921,3.8954072-3.921h91.5520096
						c2.1991119,0,3.979866,1.794,3.979866,4.006v63.7759972"/>
				</g>
				<path id="Fill-12" class="st1" d="M140.9516907,119.5530167H9.8553371c-1.0652752,0-2.8798189,0.7679977-1.4180479,4.1340027
					c1.2829008,2.9569931,2.4694099,3.9069977,4.2581177,4.0949936v0.0390015h125.5135956v-0.0540009
					c1.7340546-0.2129974,2.9026642-1.1790009,4.1617126-4.0799942
					C143.8314972,120.3210144,142.0169678,119.5530167,140.9516907,119.5530167"/>
				<path id="Stroke-14_1_" class="st14" d="M140.9516907,119.5530167H9.8553371
					c-1.0652752,0-2.8798189,0.7679977-1.4180479,4.1340027c1.2829008,2.9569931,2.4694099,3.9069977,4.2581177,4.0949936v0.0390015
					h125.5135956v-0.0540009c1.7340546-0.2129974,2.9026642-1.1790009,4.1617126-4.0799942
					C143.8314972,120.3210144,142.0169678,119.5530167,140.9516907,119.5530167z"/>
				<path id="Stroke-16_1_" class="st14" d="M87.853508,119.5813141c0,1.5820007-1.0772018,2.8769989-2.3928909,2.8769989
					H65.3466034c-1.3166885,0-2.3928947-1.2949982-2.3928947-2.8769989"/>
				<path id="Stroke-18" class="st15" d="M1.4410588,127.8206177H150.5"/>
			</g>
			<g id="Group-39" transform="translate(28.000000, 64.000000)">
				<defs>
					
						<filter id="Adobe_OpacityMaskFilter_1_" filterUnits="userSpaceOnUse" x="0.8369995" y="0.2619173" width="8.4526358" height="51.2420006">
						<feColorMatrix  type="matrix" values="1 0 0 0 0  0 1 0 0 0  0 0 1 0 0  0 0 0 1 0"/>
					</filter>
				</defs>
				<mask maskUnits="userSpaceOnUse" x="0.8369995" y="0.2619173" width="8.4526358" height="51.2420006" id="mask-4_2_">
					<g class="st12">
						<path id="path-3_2_" class="st1" d="M1.8933306,0.2619173c-0.5833174,0-1.0563312,0.476-1.0563312,1.062v49.118
							c0,0.586998,0.4730137,1.0620003,1.0563312,1.0620003h6.3409672c0.5823231,0,1.0553379-0.4750023,1.0553379-1.0620003v-49.118
							c0-0.5860001-0.4730148-1.062-1.0553379-1.062H1.8933306z M0.8369995,0.2619173h8.4526358v51.2420006H0.8369995V0.2619173z"/>
					</g>
				</mask>
				<path id="Fill-37_1_" class="st17" d="M1.8933306,0.2619173c-0.5833174,0-1.0563312,0.476-1.0563312,1.062v49.118
					c0,0.586998,0.4730137,1.0620003,1.0563312,1.0620003h6.3409672c0.5823231,0,1.0553379-0.4750023,1.0553379-1.0620003v-49.118
					c0-0.5860001-0.4730148-1.062-1.0553379-1.062H1.8933306z"/>
			</g>
			<g id="Group-48_1_" transform="translate(72.000000, 64.000000)">
				<defs>
					
						<filter id="Adobe_OpacityMaskFilter_2_" filterUnits="userSpaceOnUse" x="0.3820855" y="0.2619173" width="8.4526358" height="51.2420006">
						<feColorMatrix  type="matrix" values="1 0 0 0 0  0 1 0 0 0  0 0 1 0 0  0 0 0 1 0"/>
					</filter>
				</defs>
				<mask maskUnits="userSpaceOnUse" x="0.3820855" y="0.2619173" width="8.4526358" height="51.2420006" id="mask-9_2_">
					<g class="st16">
						<path id="path-8_2_" class="st1" d="M1.4374229,0.2619173c-0.5833174,0-1.0553374,0.476-1.0553374,1.062v49.118
							c0,0.586998,0.47202,1.0620003,1.0553374,1.0620003h6.3419614c0.5823236,0,1.0553374-0.4750023,1.0553374-1.0620003v-49.118
							c0-0.5860001-0.4730139-1.062-1.0553374-1.062H1.4374229z M0.3820855,0.2619173h8.4526358v51.2420006H0.3820855V0.2619173z"/>
					</g>
				</mask>
				<path id="Fill-46" class="st19" d="M1.4374229,0.2619173c-0.5833174,0-1.0553374,0.476-1.0553374,1.062v49.118
					c0,0.586998,0.47202,1.0620003,1.0553374,1.0620003h6.3419614c0.5823236,0,1.0553374-0.4750023,1.0553374-1.0620003v-49.118
					c0-0.5860001-0.4730139-1.062-1.0553374-1.062H1.4374229z"/>
			</g>
		</g>
	</g>
</g>
<g>
	<path id="Shape_3_" class="st40" d="M31.7200089,128.0353241v-56c0-1.6568527,1.3431473-3,3-3h54c1.6568527,0,3,1.3431473,3,3v56
		C78.0100098,128.1853333,41.0700073,127.9753265,31.7200089,128.0353241z"/>
	<path id="Shape_2_" class="st41" d="M31.7200089,83.0653229h60"/>
	<path id="Rectangle-path_23_" class="st42" d="M41.3000107,63.7053261h8c0.5522842,0,1,0.4477119,1,0.9999962v14
		c0,0.5522842-0.4477158,1-1,1h-8c-0.5522842,0-1-0.4477158-1-1v-14
		C40.3000107,64.153038,40.7477264,63.7053261,41.3000107,63.7053261z"/>
	<path id="Rectangle-path_22_" class="st42" d="M74.140007,63.7053261h8c0.5522842,0,1,0.4477119,1,0.9999962v14
		c0,0.5522842-0.4477158,1-1,1h-8c-0.5522842,0-1-0.4477158-1-1v-14
		C73.140007,64.153038,73.5877228,63.7053261,74.140007,63.7053261z"/>
	<path id="Rectangle-path_21_" class="st43" d="M51.6200104,88.6153259h8c0.5522842,0,1,0.4477158,1,1v8
		c0,0.5522842-0.4477158,1-1,1h-8c-0.5522842,0-1-0.4477158-1-1v-8
		C50.6200104,89.0630417,51.0677261,88.6153259,51.6200104,88.6153259z"/>
	<path id="Rectangle-path_20_" class="st43" d="M63.8200073,88.6153259h8c0.5522842,0,1,0.4477158,1,1v8
		c0,0.5522842-0.4477158,1-1,1h-8c-0.5522842,0-1-0.4477158-1-1v-8
		C62.8200073,89.0630417,63.2677231,88.6153259,63.8200073,88.6153259z"/>
	<path id="Rectangle-path_19_" class="st43" d="M76.0200119,88.6153259h8c0.5522842,0,1,0.4477158,1,1v8
		c0,0.5522842-0.4477158,1-1,1h-8c-0.5522842,0-1-0.4477158-1-1v-8
		C75.0200119,89.0630417,75.4677277,88.6153259,76.0200119,88.6153259z"/>
	<path id="Rectangle-path_18_" class="st43" d="M39.4200096,100.3653259h8c0.5522842,0,1,0.4477158,1,1v8
		c0,0.5522842-0.4477158,1-1,1h-8c-0.5522842,0-1-0.4477158-1-1v-8
		C38.4200096,100.8130417,38.8677254,100.3653259,39.4200096,100.3653259z"/>
	<path id="Rectangle-path_17_" class="st43" d="M51.6200104,100.3653259h8c0.5522842,0,1,0.4477158,1,1v8
		c0,0.5522842-0.4477158,1-1,1h-8c-0.5522842,0-1-0.4477158-1-1v-8
		C50.6200104,100.8130417,51.0677261,100.3653259,51.6200104,100.3653259z"/>
	<path id="Rectangle-path_16_" class="st43" d="M63.8200073,100.3653259h8c0.5522842,0,1,0.4477158,1,1v8
		c0,0.5522842-0.4477158,1-1,1h-8c-0.5522842,0-1-0.4477158-1-1v-8
		C62.8200073,100.8130417,63.2677231,100.3653259,63.8200073,100.3653259z"/>
	<path id="Rectangle-path_15_" class="st43" d="M76.0200119,100.3653259h8c0.5522842,0,1,0.4477158,1,1v8
		c0,0.5522842-0.4477158,1-1,1h-8c-0.5522842,0-1-0.4477158-1-1v-8
		C75.0200119,100.8130417,75.4677277,100.3653259,76.0200119,100.3653259z"/>
	<path id="Rectangle-path_14_" class="st43" d="M39.4200096,112.1153259h8c0.5522842,0,1,0.4477158,1,1v8
		c0,0.5522842-0.4477158,1-1,1h-8c-0.5522842,0-1-0.4477158-1-1v-8
		C38.4200096,112.5630417,38.8677254,112.1153259,39.4200096,112.1153259z"/>
	<path id="Rectangle-path_13_" class="st43" d="M51.6200104,112.1153259h8c0.5522842,0,1,0.4477158,1,1v8
		c0,0.5522842-0.4477158,1-1,1h-8c-0.5522842,0-1-0.4477158-1-1v-8
		C50.6200104,112.5630417,51.0677261,112.1153259,51.6200104,112.1153259z"/>
	
		<linearGradient id="Rectangle-path_1_" gradientUnits="userSpaceOnUse" x1="62.8200073" y1="117.1153259" x2="72.8200073" y2="117.1153259">
		<stop  offset="0" style="stop-color:#07CCFF"/>
		<stop  offset="1" style="stop-color:#71E2FF"/>
	</linearGradient>
	<path id="Rectangle-path_12_" class="st44" d="M63.8200073,112.1153259h8c0.5522842,0,1,0.4477158,1,1v8
		c0,0.5522842-0.4477158,1-1,1h-8c-0.5522842,0-1-0.4477158-1-1v-8
		C62.8200073,112.5630417,63.2677231,112.1153259,63.8200073,112.1153259z"/>
</g>
<g>
	<path id="Fill-20" class="st42" d="M114.2154846,61.649292h17.6216431c0,9.6669083-7.9547348,17.6216431-17.6216431,17.6216431
		S96.5944595,71.3162003,96.5944595,61.649292s7.9541168-17.6216431,17.6210251-17.6216431
		c0.999794,0,1.9977417,0.0853615,2.9827957,0.2542458L114.2154846,61.649292z"/>
	<path id="Stroke-22" class="st45" d="M114.2154846,61.649292h17.6216431c0,9.6669083-7.9547348,17.6216431-17.6216431,17.6216431
		S96.5944595,71.3162003,96.5944595,61.649292s7.9541168-17.6216431,17.6210251-17.6216431
		c0.999794,0,1.9977417,0.0853615,2.9827957,0.2542458L114.2154846,61.649292z"/>
	<path id="Fill-25" class="st6" d="M116.4981232,59.8769951l21.3720856-0.0571175
		c-0.013504-5.0216789-1.7969208-9.8824615-5.0339661-13.7207298c-3.238266-3.8395004-7.7275009-6.4169731-12.6754913-7.2779732
		L116.4981232,59.8769951z"/>
	
		<linearGradient id="Stroke-27_1_" gradientUnits="userSpaceOnUse" x1="-8232.9169922" y1="1453.2716064" x2="-8232.9169922" y2="1452.6856689" gradientTransform="matrix(34.8009949 0 0 -34.2859955 286641.78125 49865.4882812)">
		<stop  offset="0" style="stop-color:#07CCFF"/>
		<stop  offset="1" style="stop-color:#71E2FF"/>
	</linearGradient>
	<path id="Stroke-27" class="st46" d="M117.3731232,59.2521172l3.6626282-21.0558205
		c4.9479904,0.8610001,9.4372253,3.4384766,12.6754913,7.277359c3.2370453,3.8388824,5.020462,8.6990509,5.0339661,13.7213516
		L117.3731232,59.2521172z"/>
	<g id="Group-32" transform="translate(52.000000, 68.623000)">
		<path id="Fill-29" class="st47" d="M62.2154884-6.9737082L55.7807083,9.4172344"/>
		<path id="Stroke-31" class="st47" d="M62.2154884-6.9737082L55.7807083,9.4172344"/>
	</g>
</g>
</svg>
