<?xml version="1.0" encoding="utf-8"?>
<!-- Generator: Adobe Illustrator 22.1.0, SVG Export Plug-In . SVG Version: 6.00 Build 0)  -->
<svg width="150" height="150" version="1.1" id="Layer_1" xmlns="http://www.w3.org/2000/svg" xmlns:xlink="http://www.w3.org/1999/xlink" x="0px" y="0px"
	 viewBox="0 0 151 150" style="enable-background:new 0 0 151 150;" xml:space="preserve">
<style type="text/css">
	.st0{filter:url(#Adobe_OpacityMaskFilter);}
	.st1{fill:#FFFFFF;}
	.st2{mask:url(#mask-2_3_);fill:#F2F3F5;}
	.st3{fill:none;stroke:#ACB7BC;stroke-width:1.001259;}
	.st4{fill:#F8F9F9;}
	.st5{fill:none;stroke:#7F888D;stroke-width:1.001259;stroke-linecap:round;}
	.st6{fill:none;}
	.st7{fill:url(#Stroke-39_2_);stroke:#7F888D;stroke-width:1.001259;stroke-linecap:round;stroke-linejoin:round;}
	.st8{fill:#DDDFE0;}
	.st9{fill:none;stroke:#7F878C;stroke-width:1.001259;}
	.st10{fill:none;stroke:#7F888D;stroke-width:1.001259;stroke-linecap:round;stroke-linejoin:round;}
	.st11{fill:none;stroke:#7F878C;stroke-width:0.947191;stroke-linecap:round;stroke-linejoin:round;}
	.st12{filter:url(#Adobe_OpacityMaskFilter_1_);}
	.st13{mask:url(#mask-2_2_);fill:#F2F3F5;}
	.st14{fill:none;stroke:#ACB7BC;stroke-width:0.9968582;}
	.st15{fill:none;stroke:#7F878C;stroke-width:0.9968582;stroke-linecap:round;stroke-linejoin:round;}
	.st16{filter:url(#Adobe_OpacityMaskFilter_2_);}
	.st17{mask:url(#mask-4_2_);fill:none;}
	.st18{filter:url(#Adobe_OpacityMaskFilter_3_);}
	.st19{mask:url(#mask-9_2_);fill:none;}
	.st20{filter:url(#Adobe_OpacityMaskFilter_4_);}
	.st21{mask:url(#mask-2_4_);fill:#F2F3F5;}
	.st22{fill:#7F888D;}
	.st23{fill:none;stroke:#7F878C;stroke-width:0.9968582;}
	.st24{fill:none;stroke:#7F878C;stroke-width:0.9430279;stroke-linecap:round;stroke-linejoin:round;}
	.st25{filter:url(#Adobe_OpacityMaskFilter_5_);}
	.st26{mask:url(#mask-4_1_);fill:none;}
	.st27{fill:url(#Stroke-40_2_);stroke:#7F888D;stroke-width:0.9968582;}
	.st28{filter:url(#Adobe_OpacityMaskFilter_6_);}
	.st29{mask:url(#mask-7_2_);fill:#FFFFFF;}
	.st30{filter:url(#Adobe_OpacityMaskFilter_7_);}
	.st31{mask:url(#mask-7_1_);fill:none;stroke:#7F878C;stroke-width:0.9968582;}
	.st32{filter:url(#Adobe_OpacityMaskFilter_8_);}
	.st33{mask:url(#mask-9_1_);fill:none;}
	.st34{fill:url(#Stroke-49_1_);stroke:#7F888D;stroke-width:0.9968582;}
	.st35{fill:none;stroke:#7F888D;stroke-width:0.9968582;stroke-linecap:round;}
	
		.st36{fill:none;stroke:#7F888D;stroke-width:0.9968582;stroke-linecap:round;stroke-linejoin:round;stroke-dasharray:0.9968582,1.9937164,0.9968582,1.9937164;}
	.st37{fill:none;stroke:#7F878C;stroke-width:0.9968582;stroke-linejoin:round;}
	.st38{fill:none;stroke:#7F878C;stroke-width:0.9968582;stroke-linecap:round;}
	.st39{fill:#AEB8BD;}
	.st40{fill:#FFFFFF;stroke:#7F878C;stroke-width:0.97;}
	.st41{fill:#FFFFFF;stroke:#7F878C;}
	.st42{fill:#DDDFE0;stroke:#7F888D;}
	.st43{fill:#EFF0F0;}
	.st44{fill:url(#Rectangle-path_1_);}
	.st45{fill:none;stroke:#7F878C;stroke-width:0.6141229;}
	.st46{fill:url(#Stroke-27_1_);stroke:#7F888D;stroke-linejoin:round;}
	.st47{fill:none;stroke:#7F878C;}
	.st48{fill:url(#SVGID_1_);}
	.st49{fill:url(#SVGID_2_);}
	.st50{fill:url(#SVGID_3_);}
	.st51{fill:url(#SVGID_4_);}
	.st52{fill:none;stroke:url(#Stroke-4_2_);stroke-width:2;stroke-linecap:round;stroke-linejoin:round;stroke-miterlimit:10;}
	.st53{fill:none;stroke:url(#Stroke-6_5_);stroke-width:2;stroke-linecap:round;stroke-linejoin:round;stroke-miterlimit:10;}
	.st54{fill:none;stroke:url(#Stroke-8_2_);stroke-width:2;stroke-linecap:round;stroke-linejoin:round;stroke-miterlimit:10;}
	.st55{fill:none;stroke:url(#Stroke-10_1_);stroke-width:2;stroke-linecap:round;stroke-linejoin:round;stroke-miterlimit:10;}
	.st56{fill:none;stroke:url(#Stroke-12_3_);stroke-width:2;stroke-linecap:round;stroke-linejoin:round;stroke-miterlimit:10;}
	.st57{fill:none;stroke:url(#Stroke-14_5_);stroke-width:2;stroke-linecap:round;stroke-linejoin:round;stroke-miterlimit:10;}
	.st58{fill:none;stroke:url(#Stroke-16_6_);stroke-width:2;stroke-linecap:round;stroke-linejoin:round;stroke-miterlimit:10;}
	.st59{fill:url(#SVGID_5_);}
	.st60{fill:url(#SVGID_6_);}
	.st61{fill:url(#SVGID_7_);}
	.st62{fill:url(#SVGID_8_);}
	.st63{fill:url(#SVGID_9_);}
	.st64{fill:url(#SVGID_10_);}
	.st65{fill:url(#SVGID_11_);}
	.st66{fill:none;stroke:url(#Stroke-16_7_);stroke-width:2;stroke-linecap:round;stroke-linejoin:round;stroke-miterlimit:10;}
	.st67{fill:none;stroke:url(#Stroke-18_4_);stroke-width:2;stroke-linecap:round;stroke-linejoin:round;stroke-miterlimit:10;}
	.st68{fill:none;stroke:url(#Stroke-22_4_);stroke-width:2;stroke-linecap:round;stroke-linejoin:round;stroke-miterlimit:10;}
	.st69{fill:none;stroke:url(#Stroke-16_9_);stroke-width:2;stroke-linecap:round;stroke-linejoin:round;stroke-miterlimit:10;}
	.st70{fill:none;stroke:url(#Stroke-18_5_);stroke-width:2;stroke-linecap:round;stroke-linejoin:round;stroke-miterlimit:10;}
	.st71{fill:none;stroke:url(#Stroke-20_2_);stroke-width:2;stroke-linecap:round;stroke-linejoin:round;stroke-miterlimit:10;}
	.st72{fill:none;stroke:url(#Stroke-22_5_);stroke-width:2;stroke-linecap:round;stroke-linejoin:round;stroke-miterlimit:10;}
	.st73{fill:none;stroke:url(#SVGID_12_);stroke-width:2;stroke-linecap:round;stroke-linejoin:round;stroke-miterlimit:10;}
	.st74{fill:none;stroke:url(#SVGID_13_);stroke-width:2;stroke-linecap:round;stroke-linejoin:round;stroke-miterlimit:10;}
	.st75{fill:none;stroke:url(#SVGID_14_);stroke-width:2;stroke-linecap:round;stroke-linejoin:round;stroke-miterlimit:10;}
	.st76{fill:none;stroke:url(#SVGID_15_);stroke-width:2;stroke-linecap:round;stroke-linejoin:round;stroke-miterlimit:10;}
	.st77{fill:none;stroke:url(#SVGID_16_);stroke-width:2;stroke-linecap:round;stroke-linejoin:round;stroke-miterlimit:10;}
	.st78{fill:none;stroke:url(#SVGID_17_);stroke-width:2;stroke-linecap:round;stroke-linejoin:round;stroke-miterlimit:10;}
	.st79{fill:none;stroke:url(#SVGID_18_);stroke-width:2;stroke-linecap:round;stroke-linejoin:round;stroke-miterlimit:10;}
	.st80{fill:none;stroke:url(#SVGID_19_);stroke-width:2;stroke-linecap:round;stroke-linejoin:round;stroke-miterlimit:10;}
	.st81{fill:none;stroke:url(#SVGID_20_);stroke-width:2;stroke-linecap:round;stroke-linejoin:round;stroke-miterlimit:10;}
	.st82{fill:none;stroke:url(#SVGID_21_);stroke-width:2;stroke-linecap:round;stroke-linejoin:round;stroke-miterlimit:10;}
	.st83{fill:none;stroke:url(#SVGID_22_);stroke-width:2;stroke-linecap:round;stroke-linejoin:round;stroke-miterlimit:10;}
	.st84{fill:none;stroke:url(#SVGID_23_);stroke-width:2;stroke-linecap:round;stroke-linejoin:round;stroke-miterlimit:10;}
	.st85{fill:none;stroke:url(#SVGID_24_);stroke-width:2;stroke-linecap:round;stroke-linejoin:round;stroke-miterlimit:10;}
	.st86{fill:none;stroke:url(#SVGID_25_);stroke-width:2;stroke-linecap:round;stroke-linejoin:round;stroke-miterlimit:10;}
	.st87{fill:none;stroke:url(#SVGID_26_);stroke-width:2;stroke-linecap:round;stroke-linejoin:round;stroke-miterlimit:10;}
	.st88{fill:none;stroke:url(#SVGID_27_);stroke-width:2;stroke-linecap:round;stroke-linejoin:round;stroke-miterlimit:10;}
	.st89{fill:none;stroke:url(#SVGID_28_);stroke-width:2;stroke-linecap:round;stroke-linejoin:round;stroke-miterlimit:10;}
	.st90{fill:none;stroke:url(#SVGID_29_);stroke-width:2;stroke-linecap:round;stroke-linejoin:round;stroke-miterlimit:10;}
	.st91{fill:none;stroke:url(#SVGID_30_);stroke-width:2;stroke-linecap:round;stroke-linejoin:round;stroke-miterlimit:10;}
	.st92{fill:url(#Shape_5_);}
	.st93{fill:url(#SVGID_31_);}
	.st94{fill:url(#SVGID_32_);}
	.st95{fill:url(#SVGID_33_);}
	.st96{fill:url(#SVGID_34_);}
	.st97{fill:url(#Shape_6_);}
	.st98{fill:url(#SVGID_35_);}
	.st99{fill:url(#SVGID_36_);}
	.st100{fill:url(#SVGID_37_);}
</style>
<g id="Page-1_4_">
	<g id="icon_2_" transform="translate(-1568.000000, -1389.000000)">
		<g id="Page-1_5_" transform="translate(1568.000000, 1388.000000)">
			<g id="Group-36_2_" transform="translate(0.000000, 0.623000)">
				<g id="Group-3_2_">
					<defs>
						
							<filter id="Adobe_OpacityMaskFilter" filterUnits="userSpaceOnUse" x="0.6611" y="0.1887199" width="149.6239929" height="150">
							<feColorMatrix  type="matrix" values="1 0 0 0 0  0 1 0 0 0  0 0 1 0 0  0 0 0 1 0"/>
						</filter>
					</defs>
					<mask maskUnits="userSpaceOnUse" x="0.6611" y="0.1887199" width="149.6239929" height="150" id="mask-2_3_">
						<g class="st0">
							<polygon id="path-1_3_" class="st1" points="150.2850952,150.1884155 0.6611,150.1884155 0.6611,0.1887199 
								150.2850952,0.1887199 							"/>
						</g>
					</mask>
					<path id="Fill-1_2_" class="st2" d="M75.4730988,0.1887199c41.3170013,0,74.8119965,33.578392,74.8119965,75.0004959
						c0,41.4211044-33.4949951,74.9995041-74.8119965,74.9995041S0.6611,116.610321,0.6611,75.1892166
						C0.6611,33.7671127,34.1561012,0.1887199,75.4730988,0.1887199"/>
				</g>
				<path id="Fill-4_2_" class="st1" d="M21.0921993,119.9193344V51.9294586c0-2.7308617,2.2080002-4.9444275,4.9309998-4.9444275
					h99.2099991c2.8639984,0,5.1860046,2.3268471,5.1860046,5.1980667v67.7362366"/>
				<path id="Stroke-6_2_" class="st3" d="M21.0921993,119.9780884V51.686451c0-2.7308655,2.2080002-4.9444313,4.9309998-4.9444313
					h99.2099991c2.8639984,0,5.1860046,2.3278542,5.1860046,5.1980667v68.038002"/>
				<path id="Fill-8_2_" class="st4" d="M25.7280006,119.9780884V56.1175842c0-2.1654396,1.7509995-3.9208527,3.9099998-3.9208527
					h91.8990021c2.2070007,0,3.9949951,1.7945099,3.9949951,4.0060692v63.7752876"/>
				<path id="Fill-10_1_" class="st1" d="M141.6333008,119.9829941H10.0403004
					c-1.0690002,0-2.8890004,0.7679291-1.4240007,4.1333923c1.2890005,2.957428,2.4800005,3.9078293,4.2750006,4.0952988v0.0380859
					H138.879303v-0.0531158c1.7409973-0.2135468,2.9140015-1.178978,4.1779938-4.0802689
					C144.5243073,120.7509232,142.702301,119.9829941,141.6333008,119.9829941"/>
				<path id="Stroke-12_1_" class="st3" d="M141.6333008,119.9829941H10.0403004
					c-1.0690002,0-2.8890004,0.7679291-1.4240007,4.1333923c1.2890005,2.957428,2.4800005,3.9078293,4.2750006,4.0952988v0.0380859
					H138.879303v-0.0531158c1.7409973-0.2135468,2.9140015-1.178978,4.1779938-4.0802689
					C144.5243073,120.7509232,142.702301,119.9829941,141.6333008,119.9829941z"/>
				<path id="Stroke-14_2_" class="st3" d="M88.3335037,119.770462c0,1.5819855-1.0810013,2.8762283-2.401001,2.8762283H65.7415009
					c-1.3209991,0-2.401001-1.2942429-2.401001-2.8762283"/>
				<path id="Stroke-16_2_" class="st3" d="M25.7280006,119.9780884V56.1175842
					c0-2.1654396,1.7509995-3.9208527,3.9099998-3.9208527h91.8990021c2.2070007,0,3.9949951,1.7945099,3.9949951,4.0060692
					v63.7752876"/>
				<path id="Fill-18_1_" class="st1" d="M113.1429977,50.9657364c-0.1819992,0-13.5369949-0.3037605-13.5369949-0.3037605
					l1.272995-12.4462814L113.1429977,50.9657364z"/>
				<g id="Group-23_1_" transform="translate(39.000000, 38.000000)">
					<path id="Fill-20_2_" class="st1" d="M0.6118,90.1871185V3.1884644c0-1.7383689,1.0780001-3.146909,2.408-3.146909H61.4958
						c1.0419998,0,1.887001,1.1057792,1.887001,2.4672008v9.171051c0,1.023572,0.6339989,1.8526554,1.416996,1.8526554
						l8.0149994-0.0010033c0.8880005,0,1.6080017,0.9413662,1.6080017,2.1002789v74.5553818"/>
					<path id="Stroke-22_1_" class="st5" d="M0.6118,90.1871185V3.1884644c0-1.7383689,1.0780001-3.146909,2.408-3.146909H61.4958
						c1.0419998,0,1.887001,1.1057792,1.887001,2.4672008v9.171051c0,1.023572,0.6339989,1.8526554,1.416996,1.8526554
						l8.0149994-0.0010033c0.8880005,0,1.6080017,0.9413662,1.6080017,2.1002789v74.5553818"/>
				</g>
				<g id="Group-27_1_" transform="translate(102.000000, 39.000000)">
					<path id="Fill-24_1_" class="st1" d="M11.1429996,13.196331L0.225,0.2016712"/>
					<path id="Stroke-26_2_" class="st5" d="M11.1429996,13.196331L0.225,0.2016712"/>
				</g>
				<g id="Group-31_1_" transform="translate(48.000000, 60.000000)">
					<polyline id="Stroke-30_2_" class="st5" points="0.1333,0.0099686 4.2223001,0.0099686 11.7943001,0.0099686 
						57.8353004,0.0099686 					"/>
				</g>
				<g id="Group-35_1_" transform="translate(48.000000, 77.000000)">
					<polyline id="Stroke-34_2_" class="st5" points="0.1333,0.8174241 39.4793015,0.8174241 44.9243011,0.8174241 
						57.8353004,0.8174241 					"/>
				</g>
			</g>
			<path id="Fill-37_2_" class="st6" d="M91.8349991,60.63377c0,3.3193436,2.6849976,6.0101051,5.9980011,6.0101051
				c3.310997,0,5.9960022-2.6907616,5.9960022-6.0101051c0-3.320343-2.6850052-6.0121117-5.9960022-6.0121117
				C94.5199966,54.6216583,91.8349991,57.313427,91.8349991,60.63377"/>
			<g id="Group-85_1_" transform="translate(0.000000, 54.623000)">
				
					<linearGradient id="Stroke-39_2_" gradientUnits="userSpaceOnUse" x1="-7438.7714844" y1="1327.0987549" x2="-7438.7714844" y2="1326.1422119" gradientTransform="matrix(11.9929962 0 0 -11.9919996 89310.9921875 15914.8115234)">
					<stop  offset="0" style="stop-color:#07CCFF"/>
					<stop  offset="1" style="stop-color:#71E2FF"/>
				</linearGradient>
				<path id="Stroke-39_1_" class="st7" d="M103.828598,6.0099688c0,3.3203449-2.6849976,6.0111074-5.9959946,6.0111074
					c-3.3130035,0-5.9970016-2.6907625-5.9970016-6.0111074s2.6839981-6.0111079,5.9970016-6.0111079
					C101.1436005-0.001139,103.828598,2.6896238,103.828598,6.0099688z"/>
				<g id="Group-44_1_" transform="translate(76.000000, 40.000000)">
					<path id="Stroke-43_1_" class="st5" d="M0.2065,0.6889273h29.6290016"/>
				</g>
				<g id="Group-48_2_" transform="translate(48.000000, 40.000000)">
					<path id="Stroke-47_1_" class="st5" d="M0.1333,0.6889273h22.6279984"/>
				</g>
				<path id="Fill-49_1_" class="st8" d="M76.2064972,40.7574005c0,1.4716988-1.1889954,2.6636925-2.6569977,2.6636925
					s-2.6579971-1.1919937-2.6579971-2.6636925c0-1.4717026,1.1899948-2.6646996,2.6579971-2.6646996
					S76.2064972,39.2856979,76.2064972,40.7574005"/>
				<path id="Stroke-51_1_" class="st9" d="M76.2064972,40.7574005c0,1.4716988-1.1889954,2.6636925-2.6569977,2.6636925
					s-2.6579971-1.1919937-2.6579971-2.6636925c0-1.4717026,1.1899948-2.6646996,2.6579971-2.6646996
					S76.2064972,39.2856979,76.2064972,40.7574005z"/>
				<path id="Fill-53_1_" class="st1" d="M121.9291992,29.0747375c0-1.8336086-1.4830017-3.3213463-3.3129959-3.3213463
					c-1.0450058,0-1.9660034,0.4962444-2.5730057,1.253149l-0.987999-0.4320869
					c0.0090027-0.1042614,0.0299988-0.2045135,0.0299988-0.3107815c0-1.8346119-1.4819946-3.3213482-3.3129959-3.3213482
					c-0.9820023,0-1.8540039,0.4360962-2.4599991,1.1168079l-0.8810043-0.3859711
					c0.0080032-0.0942364,0.0279999-0.1854649,0.0279999-0.2827091c0-1.8346119-1.4819946-3.3213482-3.3119965-3.3213482
					c-1.5530014,0-2.8479996,1.0757046-3.2050018,2.5223389l-0.564003,0.0621567V6.4458642
					c0-1.8346109-1.4829941-3.32235-3.3129959-3.32235c-1.8290024,0-3.3130035,1.4877391-3.3130035,3.32235v16.9445877v9.7334652
					v4.9203644c0,1.8105469,0.4440002,3.593029,1.2910004,5.1910477l3.9230042,7.3995972h16.7480011l3.4629974-5.3013268
					c1.1429977-1.748394,1.7519989-3.7945366,1.7519989-5.8857918v-9.8627892l-0.0499954-0.0220547
					C121.9041977,29.4025612,121.9291992,29.2421589,121.9291992,29.0747375"/>
				<path id="Stroke-55_2_" class="st10" d="M121.9291992,29.0747375c0-1.8336086-1.4830017-3.3213463-3.3129959-3.3213463
					c-1.0450058,0-1.9660034,0.4962444-2.5730057,1.253149l-0.987999-0.4320869
					c0.0090027-0.1042614,0.0299988-0.2045135,0.0299988-0.3107815c0-1.8346119-1.4819946-3.3213482-3.3129959-3.3213482
					c-0.9820023,0-1.8540039,0.4360962-2.4599991,1.1168079l-0.8810043-0.3859711
					c0.0080032-0.0942364,0.0279999-0.1854649,0.0279999-0.2827091c0-1.8346119-1.4819946-3.3213482-3.3119965-3.3213482
					c-1.5530014,0-2.8479996,1.0757046-3.2050018,2.5223389l-0.564003,0.0621567V6.4458642
					c0-1.8346109-1.4829941-3.32235-3.3129959-3.32235c-1.8290024,0-3.3130035,1.4877391-3.3130035,3.32235v16.9445877v9.7334652
					v4.9203644c0,1.8105469,0.4440002,3.593029,1.2910004,5.1910477l3.9230042,7.3995972h16.7480011l3.4629974-5.3013268
					c1.1429977-1.748394,1.7519989-3.7945366,1.7519989-5.8857918v-9.8627892l-0.0499954-0.0220547
					C121.9041977,29.4025612,121.9291992,29.2421589,121.9291992,29.0747375z"/>
				<path id="Fill-57_1_" class="st1" d="M118.0345993,61.8309631H97.9835968c-0.6439972,0-1.1669998-0.5233116-1.1669998-1.1689377
					v-8.9154091c0-0.6135406,0.4970016-1.1117897,1.1100006-1.1117897h20.3330002
					c0.6350021,0,1.1500015,0.5172997,1.1500015,1.1528931v8.6647797
					C119.4095993,61.2144127,118.7946014,61.8309631,118.0345993,61.8309631"/>
				<path id="Stroke-59_2_" class="st10" d="M118.0345993,61.8309631H97.9835968
					c-0.6439972,0-1.1669998-0.5233116-1.1669998-1.1689377v-8.9154091c0-0.6135406,0.4970016-1.1117897,1.1100006-1.1117897
					h20.3330002c0.6350021,0,1.1500015,0.5172997,1.1500015,1.1528931v8.6647797
					C119.4095993,61.2144127,118.7946014,61.8309631,118.0345993,61.8309631z"/>
				<path id="Fill-61_1_" class="st8" d="M94.7524033,74.1871185h26.6849976v-9.9820862
					c0-1.3112946-1.060997-2.37397-2.3690033-2.37397H97.3534012c-1.4370041,0-2.6009979,1.1679382-2.6009979,2.6065521V74.1871185z
					"/>
				<path id="Stroke-63_1_" class="st9" d="M94.7524033,74.1871185h26.6849976v-9.9820862
					c0-1.3112946-1.060997-2.37397-2.3690033-2.37397H97.3534012c-1.4370041,0-2.6009979,1.1679382-2.6009979,2.6065521V74.1871185z
					"/>
				<path id="Fill-65_1_" class="st1" d="M116.8295975,56.2328949c0,0.8912392-0.7200012,1.6120491-1.6079941,1.6120491
					c-0.8880005,0-1.6080017-0.7208099-1.6080017-1.6120491c0-0.8902359,0.7200012-1.6110497,1.6080017-1.6110497
					C116.1095963,54.6218452,116.8295975,55.342659,116.8295975,56.2328949"/>
				<path id="Stroke-67_2_" class="st10" d="M116.8295975,56.2328949c0,0.8912392-0.7200012,1.6120491-1.6079941,1.6120491
					c-0.8880005,0-1.6080017-0.7208099-1.6080017-1.6120491c0-0.8902359,0.7200012-1.6110497,1.6080017-1.6110497
					C116.1095963,54.6218452,116.8295975,55.342659,116.8295975,56.2328949z"/>
				<path id="Fill-69_2_" class="st8" d="M57.5775986,24.0259476c0,1.4717007-1.1889992,2.6636944-2.6569977,2.6636944
					c-1.4680023,0-2.6580009-1.1919937-2.6580009-2.6636944c0-1.4716988,1.1899986-2.6646957,2.6580009-2.6646957
					C56.3885994,21.3612518,57.5775986,22.5542488,57.5775986,24.0259476"/>
				<path id="Stroke-71_2_" class="st9" d="M57.5775986,24.0259476c0,1.4717007-1.1889992,2.6636944-2.6569977,2.6636944
					c-1.4680023,0-2.6580009-1.1919937-2.6580009-2.6636944c0-1.4716988,1.1899986-2.6646957,2.6580009-2.6646957
					C56.3885994,21.3612518,57.5775986,22.5542488,57.5775986,24.0259476z"/>
				<path id="Stroke-79_1_" class="st11" d="M0.4731,74.2497787h150"/>
			</g>
		</g>
	</g>
</g>
</svg>
